<svg width="16" height="16" viewBox="0 0 16 16" fill="none" xmlns="http://www.w3.org/2000/svg">
<path fill-rule="evenodd" clip-rule="evenodd" d="M2 8.98976e-07C1.60444 8.98976e-07 1.21776 0.117299 0.88886 0.337062C0.559962 0.556825 0.303617 0.869182 0.152242 1.23463C0.000866562 1.60009 -0.0387401 2.00222 0.0384303 2.39018C0.115601 2.77814 0.306082 3.13451 0.585787 3.41421C0.865492 3.69392 1.22186 3.8844 1.60982 3.96157C1.99778 4.03874 2.39992 3.99914 2.76537 3.84776C3.13082 3.69638 3.44318 3.44004 3.66294 3.11114C3.8827 2.78224 4 2.39556 4 2C4 1.46957 3.78929 0.96086 3.41421 0.585787C3.03914 0.210715 2.53043 8.98976e-07 2 8.98976e-07ZM8 8.98976e-07C7.60444 8.98976e-07 7.21776 0.117299 6.88886 0.337062C6.55996 0.556825 6.30362 0.869182 6.15224 1.23463C6.00087 1.60009 5.96126 2.00222 6.03843 2.39018C6.1156 2.77814 6.30608 3.13451 6.58579 3.41421C6.86549 3.69392 7.22186 3.8844 7.60982 3.96157C7.99778 4.03874 8.39992 3.99914 8.76537 3.84776C9.13082 3.69638 9.44318 3.44004 9.66294 3.11114C9.8827 2.78224 10 2.39556 10 2C10 1.46957 9.78929 0.96086 9.41421 0.585787C9.03914 0.210715 8.53043 8.98976e-07 8 8.98976e-07ZM14 4C14.3956 4 14.7822 3.8827 15.1111 3.66294C15.44 3.44318 15.6964 3.13082 15.8478 2.76537C15.9991 2.39992 16.0387 1.99778 15.9616 1.60982C15.8844 1.22186 15.6939 0.865492 15.4142 0.585787C15.1345 0.306082 14.7781 0.115601 14.3902 0.0384303C14.0022 -0.0387401 13.6001 0.000866562 13.2346 0.152242C12.8692 0.303617 12.5568 0.559962 12.3371 0.88886C12.1173 1.21776 12 1.60444 12 2C12 2.53043 12.2107 3.03914 12.5858 3.41421C12.9609 3.78929 13.4696 4 14 4ZM2 6C1.60444 6 1.21776 6.1173 0.88886 6.33706C0.559962 6.55682 0.303617 6.86918 0.152242 7.23463C0.000866562 7.60009 -0.0387401 8.00222 0.0384303 8.39018C0.115601 8.77814 0.306082 9.13451 0.585787 9.41421C0.865492 9.69392 1.22186 9.8844 1.60982 9.96157C1.99778 10.0387 2.39992 9.99914 2.76537 9.84776C3.13082 9.69639 3.44318 9.44004 3.66294 9.11114C3.8827 8.78224 4 8.39556 4 8C4 7.46957 3.78929 6.96086 3.41421 6.58579C3.03914 6.21071 2.53043 6 2 6ZM8 6C7.60444 6 7.21776 6.1173 6.88886 6.33706C6.55996 6.55682 6.30362 6.86918 6.15224 7.23463C6.00087 7.60009 5.96126 8.00222 6.03843 8.39018C6.1156 8.77814 6.30608 9.13451 6.58579 9.41421C6.86549 9.69392 7.22186 9.8844 7.60982 9.96157C7.99778 10.0387 8.39992 9.99914 8.76537 9.84776C9.13082 9.69639 9.44318 9.44004 9.66294 9.11114C9.8827 8.78224 10 8.39556 10 8C10 7.46957 9.78929 6.96086 9.41421 6.58579C9.03914 6.21071 8.53043 6 8 6ZM14 6C13.6044 6 13.2178 6.1173 12.8889 6.33706C12.56 6.55682 12.3036 6.86918 12.1522 7.23463C12.0009 7.60009 11.9613 8.00222 12.0384 8.39018C12.1156 8.77814 12.3061 9.13451 12.5858 9.41421C12.8655 9.69392 13.2219 9.8844 13.6098 9.96157C13.9978 10.0387 14.3999 9.99914 14.7654 9.84776C15.1308 9.69639 15.4432 9.44004 15.6629 9.11114C15.8827 8.78224 16 8.39556 16 8C16 7.46957 15.7893 6.96086 15.4142 6.58579C15.0391 6.21071 14.5304 6 14 6ZM2 12C1.60444 12 1.21776 12.1173 0.88886 12.3371C0.559962 12.5568 0.303617 12.8692 0.152242 13.2346C0.000866562 13.6001 -0.0387401 14.0022 0.0384303 14.3902C0.115601 14.7781 0.306082 15.1345 0.585787 15.4142C0.865492 15.6939 1.22186 15.8844 1.60982 15.9616C1.99778 16.0387 2.39992 15.9991 2.76537 15.8478C3.13082 15.6964 3.44318 15.44 3.66294 15.1111C3.8827 14.7822 4 14.3956 4 14C4 13.4696 3.78929 12.9609 3.41421 12.5858C3.03914 12.2107 2.53043 12 2 12ZM8 12C7.60444 12 7.21776 12.1173 6.88886 12.3371C6.55996 12.5568 6.30362 12.8692 6.15224 13.2346C6.00087 13.6001 5.96126 14.0022 6.03843 14.3902C6.1156 14.7781 6.30608 15.1345 6.58579 15.4142C6.86549 15.6939 7.22186 15.8844 7.60982 15.9616C7.99778 16.0387 8.39992 15.9991 8.76537 15.8478C9.13082 15.6964 9.44318 15.44 9.66294 15.1111C9.8827 14.7822 10 14.3956 10 14C10 13.4696 9.78929 12.9609 9.41421 12.5858C9.03914 12.2107 8.53043 12 8 12ZM14 12C13.6044 12 13.2178 12.1173 12.8889 12.3371C12.56 12.5568 12.3036 12.8692 12.1522 13.2346C12.0009 13.6001 11.9613 14.0022 12.0384 14.3902C12.1156 14.7781 12.3061 15.1345 12.5858 15.4142C12.8655 15.6939 13.2219 15.8844 13.6098 15.9616C13.9978 16.0387 14.3999 15.9991 14.7654 15.8478C15.1308 15.6964 15.4432 15.44 15.6629 15.1111C15.8827 14.7822 16 14.3956 16 14C16 13.4696 15.7893 12.9609 15.4142 12.5858C15.0391 12.2107 14.5304 12 14 12Z" fill="#D1D1D1"/>
</svg>
